<svg width="24" height="20" viewBox="0 0 24 20" fill="none" xmlns="http://www.w3.org/2000/svg">
<path fill-rule="evenodd" clip-rule="evenodd" d="M15.721 2.001C16.892 2.001 17.947 2.49 18.691 3.276C19.617 3.093 20.489 2.759 21.273 2.298C20.971 3.238 20.325 4.028 19.485 4.527C20.307 4.429 21.093 4.213 21.823 3.891C21.276 4.699 20.587 5.41 19.793 5.979C19.8 6.152 19.803 6.327 19.803 6.501C19.803 11.831 16.436 17.999 8.95102 17.999C5.96702 17.999 3.78802 17.306 1.98902 16.162C2.30702 16.201 2.63102 16.219 2.95902 16.219C4.86502 16.219 6.62002 15.575 8.01402 14.492C6.23202 14.461 4.72802 13.294 4.21302 11.692C4.46002 11.74 4.71702 11.765 4.97902 11.765C5.34802 11.765 5.70902 11.716 6.04902 11.624C4.18802 11.254 2.95302 9.638 2.95302 7.683C2.95302 7.665 2.95302 7.648 2.95302 7.631C3.50202 7.933 4.12802 8.114 4.79602 8.136C3.70402 7.412 2.98602 6.179 2.98602 4.779C2.98602 4.041 3.18702 3.347 3.53702 2.753C5.54302 5.192 8.37502 6.784 11.757 6.953C11.687 6.659 11.651 6.348 11.651 6.035C11.651 3.806 13.473 2.001 15.721 2.001ZM21.823 3.891H21.828H21.823ZM15.721 0C12.865 0 10.463 1.979 9.82702 4.633C7.99002 4.128 6.37002 3.059 5.06902 1.477C4.68902 1.016 4.12602 0.753 3.53702 0.753C3.48502 0.753 3.43302 0.755 3.38102 0.759C2.73502 0.81 2.15502 1.173 1.82502 1.734C1.28302 2.654 0.997016 3.707 0.997016 4.779C0.997016 5.395 1.09002 5.997 1.26802 6.568C1.07202 6.882 0.964016 7.249 0.964016 7.631V7.683C0.964016 9.122 1.43102 10.441 2.23502 11.474C2.20502 11.751 2.23202 12.035 2.32002 12.308C2.54702 13.012 2.89402 13.651 3.33702 14.207C3.21102 14.215 3.08502 14.218 2.95902 14.218C2.70202 14.218 2.45702 14.204 2.23102 14.176C2.15002 14.166 2.06802 14.161 1.98802 14.161C1.15702 14.161 0.401016 14.686 0.116016 15.49C-0.196984 16.371 0.140016 17.353 0.926016 17.853C3.19702 19.298 5.82202 20 8.95102 20C14.045 20 17.081 17.557 18.73 15.508C20.59 13.196 21.692 10.095 21.786 6.938C22.401 6.392 22.948 5.772 23.42 5.086C23.668 4.753 23.814 4.339 23.814 3.891C23.814 3.349 23.6 2.857 23.252 2.497C23.318 1.833 23.05 1.168 22.519 0.739C22.158 0.446 21.716 0.297 21.273 0.297C20.927 0.297 20.581 0.388 20.269 0.571C19.922 0.775 19.556 0.944 19.175 1.077C18.168 0.384 16.96 0 15.721 0Z" fill="#1B1B1B"/>
</svg>
